<mxfile host="Drawpyo" modified="2024-12-21T23:29:01" agent="Python 3.11, Drawpyo 0.01" version="21.6.5" type="device">
  <diagram name="Page-1" id="4334461712">
    <mxGraphModel dx="2037" dy="830" grid="1" gridSize="10" guides="1" toolTips="1" connect="1" arrows="1" fold="1" page="1" pageScale="1" pageWidth="850" pageHeight="1100" math="0" shadow="0">
      <root>
        <mxCell id="0" />
        <mxCell id="1" parent="0" />
        <mxCell id="4334462032" value="" style="swimlane;whiteSpace=wrap;rounded=0;dashed=0;horizontal=0;" vertex="1" parent="1">
  <mxGeometry x="0" y="0" width="640" height="400" as="geometry" />
</mxCell>
        <mxCell id="4329866896" value="Step 1" style="whiteSpace=wrap;rounded=0;dashed=0;" vertex="1" parent="4334462032">
  <mxGeometry x="100" y="300" width="120" height="80" as="geometry" />
</mxCell>
        <mxCell id="4334462224" value="Step 2" style="whiteSpace=wrap;rounded=0;dashed=0;" vertex="1" parent="4334462032">
  <mxGeometry x="300" y="300" width="120" height="80" as="geometry" />
</mxCell>
        <mxCell id="4334462416" style="edgeStyle=orthogonalEdgeStyle;orthogonalLoop=1;rounded=0;jettySize=auto;" edge="1" parent="1" source="4329866896" target="4334462224">
  <mxGeometry relative="1" as="geometry" />
</mxCell>
        <mxCell id="4334462928" value="Step 3" style="whiteSpace=wrap;rounded=0;dashed=0;" vertex="1" parent="4334462032">
  <mxGeometry x="500" y="300" width="120" height="80" as="geometry" />
</mxCell>
        <mxCell id="4334463568" style="edgeStyle=orthogonalEdgeStyle;orthogonalLoop=1;rounded=0;jettySize=auto;" edge="1" parent="1" source="4334462224" target="4334462928">
  <mxGeometry relative="1" as="geometry" />
</mxCell>
      </root>
    </mxGraphModel>
  </diagram>
</mxfile>